<mxfile host="app.diagrams.net" agent="Mozilla/5.0 (Windows NT 10.0; Win64; x64) AppleWebKit/537.36 (KHTML, like Gecko) Chrome/129.0.0.0 Safari/537.36" version="24.7.17">
  <diagram name="Page-1" id="y5Ovz8a1xYiCppvvw-u1">
    <mxGraphModel dx="600" dy="1495" grid="1" gridSize="10" guides="1" tooltips="1" connect="1" arrows="1" fold="1" page="1" pageScale="1" pageWidth="850" pageHeight="1100" math="0" shadow="0">
      <root>
        <mxCell id="0" />
        <mxCell id="1" parent="0" />
        <mxCell id="ailPwn5xq4Zy5DJWB5IU-4" style="edgeStyle=orthogonalEdgeStyle;rounded=0;orthogonalLoop=1;jettySize=auto;html=1;exitX=0.5;exitY=1;exitDx=0;exitDy=0;entryX=0.5;entryY=0;entryDx=0;entryDy=0;" edge="1" parent="1" source="ailPwn5xq4Zy5DJWB5IU-1" target="ailPwn5xq4Zy5DJWB5IU-3">
          <mxGeometry relative="1" as="geometry" />
        </mxCell>
        <mxCell id="ailPwn5xq4Zy5DJWB5IU-1" value="Pocetak" style="ellipse;whiteSpace=wrap;html=1;" vertex="1" parent="1">
          <mxGeometry x="110" y="-31" width="110" height="40" as="geometry" />
        </mxCell>
        <mxCell id="ailPwn5xq4Zy5DJWB5IU-2" value="" style="shape=trapezoid;perimeter=trapezoidPerimeter;whiteSpace=wrap;html=1;fixedSize=1;rotation=-180;" vertex="1" parent="1">
          <mxGeometry x="100" y="39" width="120" height="30" as="geometry" />
        </mxCell>
        <mxCell id="ailPwn5xq4Zy5DJWB5IU-20" style="edgeStyle=orthogonalEdgeStyle;rounded=0;orthogonalLoop=1;jettySize=auto;html=1;exitX=0.5;exitY=1;exitDx=0;exitDy=0;entryX=0.5;entryY=0;entryDx=0;entryDy=0;" edge="1" parent="1" source="ailPwn5xq4Zy5DJWB5IU-3" target="ailPwn5xq4Zy5DJWB5IU-19">
          <mxGeometry relative="1" as="geometry" />
        </mxCell>
        <mxCell id="ailPwn5xq4Zy5DJWB5IU-3" value="a, b" style="text;html=1;align=center;verticalAlign=middle;whiteSpace=wrap;rounded=0;" vertex="1" parent="1">
          <mxGeometry x="132" y="39" width="60" height="30" as="geometry" />
        </mxCell>
        <mxCell id="ailPwn5xq4Zy5DJWB5IU-12" style="edgeStyle=orthogonalEdgeStyle;rounded=0;orthogonalLoop=1;jettySize=auto;html=1;exitX=0.5;exitY=1;exitDx=0;exitDy=0;entryX=0.5;entryY=0;entryDx=0;entryDy=0;" edge="1" parent="1" source="ailPwn5xq4Zy5DJWB5IU-5" target="ailPwn5xq4Zy5DJWB5IU-11">
          <mxGeometry relative="1" as="geometry" />
        </mxCell>
        <mxCell id="ailPwn5xq4Zy5DJWB5IU-26" style="edgeStyle=orthogonalEdgeStyle;rounded=0;orthogonalLoop=1;jettySize=auto;html=1;exitX=1;exitY=0.5;exitDx=0;exitDy=0;entryX=0.5;entryY=0;entryDx=0;entryDy=0;" edge="1" parent="1" source="ailPwn5xq4Zy5DJWB5IU-5" target="ailPwn5xq4Zy5DJWB5IU-22">
          <mxGeometry relative="1" as="geometry" />
        </mxCell>
        <mxCell id="ailPwn5xq4Zy5DJWB5IU-5" value="b != 0" style="shape=hexagon;perimeter=hexagonPerimeter2;whiteSpace=wrap;html=1;fixedSize=1;" vertex="1" parent="1">
          <mxGeometry x="100" y="160" width="120" height="40" as="geometry" />
        </mxCell>
        <mxCell id="ailPwn5xq4Zy5DJWB5IU-14" style="edgeStyle=orthogonalEdgeStyle;rounded=0;orthogonalLoop=1;jettySize=auto;html=1;exitX=0;exitY=0.5;exitDx=0;exitDy=0;" edge="1" parent="1" source="ailPwn5xq4Zy5DJWB5IU-11">
          <mxGeometry relative="1" as="geometry">
            <mxPoint x="160" y="140" as="targetPoint" />
            <Array as="points">
              <mxPoint x="80" y="250" />
              <mxPoint x="80" y="140" />
            </Array>
          </mxGeometry>
        </mxCell>
        <mxCell id="ailPwn5xq4Zy5DJWB5IU-11" value="t = a&lt;div&gt;a = b&lt;/div&gt;&lt;div&gt;b = t mod b&lt;/div&gt;" style="rounded=0;whiteSpace=wrap;html=1;" vertex="1" parent="1">
          <mxGeometry x="100" y="220" width="120" height="60" as="geometry" />
        </mxCell>
        <mxCell id="ailPwn5xq4Zy5DJWB5IU-21" style="edgeStyle=orthogonalEdgeStyle;rounded=0;orthogonalLoop=1;jettySize=auto;html=1;exitX=0.5;exitY=1;exitDx=0;exitDy=0;entryX=0.5;entryY=0;entryDx=0;entryDy=0;" edge="1" parent="1" source="ailPwn5xq4Zy5DJWB5IU-19" target="ailPwn5xq4Zy5DJWB5IU-5">
          <mxGeometry relative="1" as="geometry" />
        </mxCell>
        <mxCell id="ailPwn5xq4Zy5DJWB5IU-19" value="ap = a&lt;div&gt;bp = b&lt;/div&gt;" style="rounded=0;whiteSpace=wrap;html=1;" vertex="1" parent="1">
          <mxGeometry x="100" y="80" width="120" height="40" as="geometry" />
        </mxCell>
        <mxCell id="ailPwn5xq4Zy5DJWB5IU-24" style="edgeStyle=orthogonalEdgeStyle;rounded=0;orthogonalLoop=1;jettySize=auto;html=1;exitX=0.5;exitY=1;exitDx=0;exitDy=0;entryX=0.502;entryY=0.05;entryDx=0;entryDy=0;entryPerimeter=0;" edge="1" parent="1" source="ailPwn5xq4Zy5DJWB5IU-25" target="ailPwn5xq4Zy5DJWB5IU-28">
          <mxGeometry relative="1" as="geometry">
            <mxPoint x="320" y="295" as="targetPoint" />
          </mxGeometry>
        </mxCell>
        <mxCell id="ailPwn5xq4Zy5DJWB5IU-22" value="NZS = ap * bp / a" style="rounded=0;whiteSpace=wrap;html=1;" vertex="1" parent="1">
          <mxGeometry x="260" y="200" width="120" height="30" as="geometry" />
        </mxCell>
        <mxCell id="ailPwn5xq4Zy5DJWB5IU-27" value="" style="edgeStyle=orthogonalEdgeStyle;rounded=0;orthogonalLoop=1;jettySize=auto;html=1;exitX=0.5;exitY=1;exitDx=0;exitDy=0;entryX=0.5;entryY=0;entryDx=0;entryDy=0;" edge="1" parent="1" source="ailPwn5xq4Zy5DJWB5IU-22" target="ailPwn5xq4Zy5DJWB5IU-25">
          <mxGeometry relative="1" as="geometry">
            <mxPoint x="320" y="230" as="sourcePoint" />
            <mxPoint x="320" y="295" as="targetPoint" />
          </mxGeometry>
        </mxCell>
        <mxCell id="ailPwn5xq4Zy5DJWB5IU-25" value="a, NZS" style="shape=trapezoid;perimeter=trapezoidPerimeter;whiteSpace=wrap;html=1;fixedSize=1;" vertex="1" parent="1">
          <mxGeometry x="260" y="250" width="120" height="30" as="geometry" />
        </mxCell>
        <mxCell id="ailPwn5xq4Zy5DJWB5IU-28" value="" style="ellipse;whiteSpace=wrap;html=1;" vertex="1" parent="1">
          <mxGeometry x="260" y="300" width="120" height="80" as="geometry" />
        </mxCell>
      </root>
    </mxGraphModel>
  </diagram>
</mxfile>
